# xmcd CD database file
#
# Track frame offsets:
#	182
#	18647
#	37242
#
# Disc length: 737 seconds
#
# Revision: 1
# Processed by: cddbd v1.5.1PL2 Copyright (c) Steve Scherf et al.
# Submitted via: CDex 1.51
#
DISCID=2302df03
DTITLE=Olivia newton-John - I Honestly Love You
DYEAR=1994
DGENRE=Country
TTITLE0=I Honestly Love You
TTITLE1=I Honestly Love You (Remix Version)
TTITLE2=What's Forever For
EXTD=YEAR: 1994
EXTT0=
EXTT1=
EXTT2=
PLAYORDER=
